<svg width="273" height="48" viewBox="0 0 273 48" fill="none" xmlns="http://www.w3.org/2000/svg">
<path d="M107.471 18.8L102.559 30H100.975L96.0465 18.8H97.7745L101.807 28L105.871 18.8H107.471ZM115.698 25.808C115.698 25.9253 115.687 26.08 115.666 26.272H108.786C108.882 27.0187 109.207 27.6213 109.762 28.08C110.327 28.528 111.026 28.752 111.858 28.752C112.871 28.752 113.687 28.4107 114.306 27.728L115.154 28.72C114.77 29.168 114.29 29.5093 113.714 29.744C113.149 29.9787 112.514 30.096 111.81 30.096C110.914 30.096 110.119 29.9147 109.426 29.552C108.733 29.1787 108.194 28.6613 107.81 28C107.437 27.3387 107.25 26.592 107.25 25.76C107.25 24.9387 107.431 24.1973 107.794 23.536C108.167 22.8747 108.674 22.3627 109.314 22C109.965 21.6267 110.695 21.44 111.506 21.44C112.317 21.44 113.037 21.6267 113.666 22C114.306 22.3627 114.802 22.8747 115.154 23.536C115.517 24.1973 115.698 24.9547 115.698 25.808ZM111.506 22.736C110.77 22.736 110.151 22.96 109.65 23.408C109.159 23.856 108.871 24.4427 108.786 25.168H114.226C114.141 24.4533 113.847 23.872 113.346 23.424C112.855 22.9653 112.242 22.736 111.506 22.736ZM119.303 22.944C119.57 22.4533 119.964 22.08 120.487 21.824C121.01 21.568 121.644 21.44 122.391 21.44V22.928C122.306 22.9173 122.188 22.912 122.039 22.912C121.207 22.912 120.551 23.1627 120.071 23.664C119.602 24.1547 119.367 24.8587 119.367 25.776V30H117.831V21.52H119.303V22.944ZM132.386 30.096C131.522 30.096 130.749 29.9093 130.066 29.536C129.394 29.1627 128.866 28.6507 128.482 28C128.098 27.3387 127.906 26.592 127.906 25.76C127.906 24.928 128.098 24.1867 128.482 23.536C128.866 22.8747 129.394 22.3627 130.066 22C130.749 21.6267 131.522 21.44 132.386 21.44C133.154 21.44 133.837 21.5947 134.434 21.904C135.042 22.2133 135.512 22.6613 135.842 23.248L134.674 24C134.408 23.5947 134.077 23.2907 133.682 23.088C133.288 22.8853 132.85 22.784 132.37 22.784C131.816 22.784 131.314 22.9067 130.866 23.152C130.429 23.3973 130.082 23.7493 129.826 24.208C129.581 24.656 129.458 25.1733 129.458 25.76C129.458 26.3573 129.581 26.8853 129.826 27.344C130.082 27.792 130.429 28.1387 130.866 28.384C131.314 28.6293 131.816 28.752 132.37 28.752C132.85 28.752 133.288 28.6507 133.682 28.448C134.077 28.2453 134.408 27.9413 134.674 27.536L135.842 28.272C135.512 28.8587 135.042 29.312 134.434 29.632C133.837 29.9413 133.154 30.096 132.386 30.096ZM140.919 21.44C142.092 21.44 142.988 21.728 143.607 22.304C144.236 22.88 144.551 23.7387 144.551 24.88V30H143.095V28.88C142.839 29.2747 142.471 29.5787 141.991 29.792C141.522 29.9947 140.962 30.096 140.311 30.096C139.362 30.096 138.599 29.8667 138.023 29.408C137.458 28.9493 137.175 28.3467 137.175 27.6C137.175 26.8533 137.447 26.256 137.991 25.808C138.535 25.3493 139.399 25.12 140.583 25.12H143.015V24.816C143.015 24.1547 142.823 23.648 142.439 23.296C142.055 22.944 141.49 22.768 140.743 22.768C140.242 22.768 139.751 22.8533 139.271 23.024C138.791 23.184 138.386 23.4027 138.055 23.68L137.415 22.528C137.852 22.176 138.375 21.9093 138.983 21.728C139.591 21.536 140.236 21.44 140.919 21.44ZM140.567 28.912C141.154 28.912 141.66 28.784 142.087 28.528C142.514 28.2613 142.823 27.888 143.015 27.408V26.224H140.647C139.346 26.224 138.695 26.6613 138.695 27.536C138.695 27.9627 138.86 28.2987 139.191 28.544C139.522 28.7893 139.98 28.912 140.567 28.912ZM148.866 22.944C149.132 22.4533 149.527 22.08 150.049 21.824C150.572 21.568 151.207 21.44 151.954 21.44V22.928C151.868 22.9173 151.751 22.912 151.602 22.912C150.77 22.912 150.114 23.1627 149.634 23.664C149.164 24.1547 148.93 24.8587 148.93 25.776V30H147.394V21.52H148.866V22.944ZM155.319 22.944C155.585 22.4533 155.98 22.08 156.503 21.824C157.025 21.568 157.66 21.44 158.407 21.44V22.928C158.321 22.9173 158.204 22.912 158.055 22.912C157.223 22.912 156.567 23.1627 156.087 23.664C155.617 24.1547 155.383 24.8587 155.383 25.776V30H153.847V21.52H155.319V22.944ZM163.854 30.096C163.011 30.096 162.254 29.9093 161.582 29.536C160.91 29.1627 160.382 28.6507 159.998 28C159.624 27.3387 159.438 26.592 159.438 25.76C159.438 24.928 159.624 24.1867 159.998 23.536C160.382 22.8747 160.91 22.3627 161.582 22C162.254 21.6267 163.011 21.44 163.854 21.44C164.696 21.44 165.448 21.6267 166.11 22C166.782 22.3627 167.304 22.8747 167.678 23.536C168.062 24.1867 168.254 24.928 168.254 25.76C168.254 26.592 168.062 27.3387 167.678 28C167.304 28.6507 166.782 29.1627 166.11 29.536C165.448 29.9093 164.696 30.096 163.854 30.096ZM163.854 28.752C164.398 28.752 164.883 28.6293 165.31 28.384C165.747 28.128 166.088 27.776 166.334 27.328C166.579 26.8693 166.702 26.3467 166.702 25.76C166.702 25.1733 166.579 24.656 166.334 24.208C166.088 23.7493 165.747 23.3973 165.31 23.152C164.883 22.9067 164.398 22.784 163.854 22.784C163.31 22.784 162.819 22.9067 162.382 23.152C161.955 23.3973 161.614 23.7493 161.358 24.208C161.112 24.656 160.99 25.1733 160.99 25.76C160.99 26.3467 161.112 26.8693 161.358 27.328C161.614 27.776 161.955 28.128 162.382 28.384C162.819 28.6293 163.31 28.752 163.854 28.752ZM172.81 30.096C172.117 30.096 171.45 30.0053 170.81 29.824C170.17 29.632 169.669 29.392 169.306 29.104L169.946 27.888C170.319 28.1547 170.773 28.368 171.306 28.528C171.839 28.688 172.378 28.768 172.922 28.768C174.266 28.768 174.938 28.384 174.938 27.616C174.938 27.36 174.847 27.1573 174.666 27.008C174.485 26.8587 174.255 26.752 173.978 26.688C173.711 26.6133 173.327 26.5333 172.826 26.448C172.143 26.3413 171.583 26.2187 171.146 26.08C170.719 25.9413 170.351 25.7067 170.042 25.376C169.733 25.0453 169.578 24.5813 169.578 23.984C169.578 23.216 169.898 22.6027 170.538 22.144C171.178 21.6747 172.037 21.44 173.114 21.44C173.679 21.44 174.245 21.5093 174.81 21.648C175.375 21.7867 175.839 21.9733 176.202 22.208L175.546 23.424C174.853 22.976 174.037 22.752 173.098 22.752C172.447 22.752 171.951 22.8587 171.61 23.072C171.269 23.2853 171.098 23.568 171.098 23.92C171.098 24.1973 171.194 24.416 171.386 24.576C171.578 24.736 171.813 24.8533 172.09 24.928C172.378 25.0027 172.778 25.088 173.29 25.184C173.973 25.3013 174.522 25.4293 174.938 25.568C175.365 25.696 175.727 25.92 176.026 26.24C176.325 26.56 176.474 27.008 176.474 27.584C176.474 28.352 176.143 28.9653 175.482 29.424C174.831 29.872 173.941 30.096 172.81 30.096Z" fill="#EBEFF2"/>
<rect x="0.5" y="0.5" width="272" height="47" rx="3.5" stroke="#EBEFF2"/>
</svg>
