<svg width="281" height="362" viewBox="0 0 281 362" fill="none" xmlns="http://www.w3.org/2000/svg">
<path d="M88.48 105.976V107H80.624V106.184L85.28 101.624C85.8667 101.048 86.2613 100.552 86.464 100.136C86.6773 99.7093 86.784 99.2827 86.784 98.856C86.784 98.1947 86.5547 97.6827 86.096 97.32C85.648 96.9467 85.0027 96.76 84.16 96.76C82.848 96.76 81.8293 97.176 81.104 98.008L80.288 97.304C80.7253 96.792 81.28 96.3973 81.952 96.12C82.6347 95.8427 83.4027 95.704 84.256 95.704C85.3973 95.704 86.2987 95.976 86.96 96.52C87.632 97.0533 87.968 97.7893 87.968 98.728C87.968 99.304 87.84 99.8587 87.584 100.392C87.328 100.925 86.8427 101.539 86.128 102.232L82.32 105.976H88.48ZM94.3273 107.096C93.4633 107.096 92.6899 106.867 92.0073 106.408C91.3353 105.949 90.8073 105.293 90.4233 104.44C90.0499 103.576 89.8633 102.563 89.8633 101.4C89.8633 100.237 90.0499 99.2293 90.4233 98.376C90.8073 97.512 91.3353 96.8507 92.0073 96.392C92.6899 95.9333 93.4633 95.704 94.3273 95.704C95.1913 95.704 95.9593 95.9333 96.6313 96.392C97.3139 96.8507 97.8473 97.512 98.2313 98.376C98.6153 99.2293 98.8073 100.237 98.8073 101.4C98.8073 102.563 98.6153 103.576 98.2313 104.44C97.8473 105.293 97.3139 105.949 96.6313 106.408C95.9593 106.867 95.1913 107.096 94.3273 107.096ZM94.3273 106.04C94.9779 106.04 95.5486 105.859 96.0393 105.496C96.5406 105.133 96.9299 104.605 97.2073 103.912C97.4846 103.219 97.6233 102.381 97.6233 101.4C97.6233 100.419 97.4846 99.5813 97.2073 98.888C96.9299 98.1947 96.5406 97.6667 96.0393 97.304C95.5486 96.9413 94.9779 96.76 94.3273 96.76C93.6766 96.76 93.1006 96.9413 92.5993 97.304C92.1086 97.6667 91.7246 98.1947 91.4473 98.888C91.1699 99.5813 91.0312 100.419 91.0312 101.4C91.0312 102.381 91.1699 103.219 91.4473 103.912C91.7246 104.605 92.1086 105.133 92.5993 105.496C93.1006 105.859 93.6766 106.04 94.3273 106.04ZM103.53 95.8V107H102.378V96.824H99.7378V95.8H103.53ZM109.151 100.392C110.772 100.392 111.951 100.685 112.687 101.272C113.434 101.848 113.807 102.659 113.807 103.704C113.807 104.355 113.652 104.936 113.343 105.448C113.044 105.96 112.591 106.365 111.983 106.664C111.375 106.952 110.628 107.096 109.743 107.096C108.943 107.096 108.18 106.968 107.455 106.712C106.74 106.445 106.164 106.093 105.727 105.656L106.287 104.744C106.66 105.128 107.151 105.443 107.759 105.688C108.367 105.923 109.023 106.04 109.727 106.04C110.655 106.04 111.37 105.832 111.871 105.416C112.383 105 112.639 104.445 112.639 103.752C112.639 102.984 112.351 102.403 111.775 102.008C111.21 101.613 110.25 101.416 108.895 101.416H106.511L107.087 95.8H113.215V96.824H108.095L107.711 100.392H109.151Z" fill="#1D2527"/>
<g clip-path="url(#clip0_53_255)">
<path d="M41.6675 108.032V100.031H40.718C40.038 100.394 39.3807 100.797 38.75 101.24V102.282C39.3125 101.897 40.2035 101.352 40.637 101.117H40.655V108.032H41.6675ZM43.4495 106.075C43.52 107.035 44.3405 108.183 46.004 108.183C47.891 108.183 49.004 106.584 49.004 103.877C49.004 100.976 47.8325 99.875 46.0745 99.875C44.6855 99.875 43.379 100.883 43.379 102.588C43.379 104.328 44.615 105.244 45.893 105.244C47.012 105.244 47.738 104.679 47.9675 104.058H48.008C48.002 106.032 47.3165 107.304 46.0505 107.304C45.0545 107.304 44.5385 106.629 44.4755 106.075H43.4495ZM47.879 102.599C47.879 103.643 47.0405 104.369 46.103 104.369C45.2015 104.369 44.387 103.794 44.387 102.569C44.387 101.334 45.26 100.754 46.139 100.754C47.0885 100.754 47.879 101.351 47.879 102.599Z" fill="#1D2527"/>
<path d="M37.25 89C37.4489 89 37.6397 89.079 37.7803 89.2197C37.921 89.3603 38 89.5511 38 89.75V90.5H50V89.75C50 89.5511 50.079 89.3603 50.2197 89.2197C50.3603 89.079 50.5511 89 50.75 89C50.9489 89 51.1397 89.079 51.2803 89.2197C51.421 89.3603 51.5 89.5511 51.5 89.75V90.5H53C53.7956 90.5 54.5587 90.8161 55.1213 91.3787C55.6839 91.9413 56 92.7044 56 93.5V110C56 110.796 55.6839 111.559 55.1213 112.121C54.5587 112.684 53.7956 113 53 113H35C34.2044 113 33.4413 112.684 32.8787 112.121C32.3161 111.559 32 110.796 32 110V93.5C32 92.7044 32.3161 91.9413 32.8787 91.3787C33.4413 90.8161 34.2044 90.5 35 90.5H36.5V89.75C36.5 89.5511 36.579 89.3603 36.7197 89.2197C36.8603 89.079 37.0511 89 37.25 89V89ZM35 92C34.6022 92 34.2206 92.158 33.9393 92.4393C33.658 92.7206 33.5 93.1022 33.5 93.5V110C33.5 110.398 33.658 110.779 33.9393 111.061C34.2206 111.342 34.6022 111.5 35 111.5H53C53.3978 111.5 53.7794 111.342 54.0607 111.061C54.342 110.779 54.5 110.398 54.5 110V93.5C54.5 93.1022 54.342 92.7206 54.0607 92.4393C53.7794 92.158 53.3978 92 53 92H35Z" fill="#1D2527"/>
<path d="M35.75 95C35.75 94.8011 35.829 94.6103 35.9697 94.4697C36.1103 94.329 36.3011 94.25 36.5 94.25H51.5C51.6989 94.25 51.8897 94.329 52.0303 94.4697C52.171 94.6103 52.25 94.8011 52.25 95V96.5C52.25 96.6989 52.171 96.8897 52.0303 97.0303C51.8897 97.171 51.6989 97.25 51.5 97.25H36.5C36.3011 97.25 36.1103 97.171 35.9697 97.0303C35.829 96.8897 35.75 96.6989 35.75 96.5V95Z" fill="#1D2527"/>
</g>
<path d="M83.936 145.8V157H82.784V146.824H80.144V145.8H83.936ZM93.0293 151.128C93.7333 151.363 94.2719 151.715 94.6453 152.184C95.0293 152.653 95.2213 153.219 95.2213 153.88C95.2213 154.531 95.0453 155.101 94.6933 155.592C94.3413 156.072 93.8346 156.445 93.1733 156.712C92.5226 156.968 91.7546 157.096 90.8693 157.096C89.5253 157.096 88.4693 156.808 87.7013 156.232C86.9333 155.656 86.5493 154.872 86.5493 153.88C86.5493 153.208 86.7306 152.643 87.0933 152.184C87.4666 151.715 88.0053 151.363 88.7093 151.128C88.1333 150.904 87.6959 150.584 87.3973 150.168C87.0986 149.741 86.9493 149.24 86.9493 148.664C86.9493 147.757 87.3013 147.037 88.0053 146.504C88.7199 145.971 89.6746 145.704 90.8693 145.704C91.6586 145.704 92.3466 145.827 92.9333 146.072C93.5306 146.307 93.9946 146.648 94.3253 147.096C94.6559 147.544 94.8212 148.067 94.8212 148.664C94.8212 149.24 94.6666 149.741 94.3573 150.168C94.0479 150.584 93.6053 150.904 93.0293 151.128ZM88.1013 148.696C88.1013 149.315 88.3466 149.805 88.8373 150.168C89.3279 150.531 90.0053 150.712 90.8693 150.712C91.7333 150.712 92.4106 150.531 92.9013 150.168C93.4026 149.805 93.6533 149.32 93.6533 148.712C93.6533 148.083 93.3973 147.587 92.8853 147.224C92.3839 146.861 91.7119 146.68 90.8693 146.68C90.0159 146.68 89.3386 146.861 88.8373 147.224C88.3466 147.587 88.1013 148.077 88.1013 148.696ZM90.8693 156.12C91.8613 156.12 92.6346 155.917 93.1893 155.512C93.7546 155.107 94.0373 154.557 94.0373 153.864C94.0373 153.171 93.7546 152.627 93.1893 152.232C92.6346 151.827 91.8613 151.624 90.8693 151.624C89.8879 151.624 89.1146 151.827 88.5493 152.232C87.9946 152.627 87.7173 153.171 87.7173 153.864C87.7173 154.568 87.9946 155.123 88.5493 155.528C89.1039 155.923 89.8773 156.12 90.8693 156.12ZM101.28 157.096C100.416 157.096 99.643 156.867 98.9604 156.408C98.2884 155.949 97.7604 155.293 97.3764 154.44C97.003 153.576 96.8164 152.563 96.8164 151.4C96.8164 150.237 97.003 149.229 97.3764 148.376C97.7604 147.512 98.2884 146.851 98.9604 146.392C99.643 145.933 100.416 145.704 101.28 145.704C102.144 145.704 102.912 145.933 103.584 146.392C104.267 146.851 104.8 147.512 105.184 148.376C105.568 149.229 105.76 150.237 105.76 151.4C105.76 152.563 105.568 153.576 105.184 154.44C104.8 155.293 104.267 155.949 103.584 156.408C102.912 156.867 102.144 157.096 101.28 157.096ZM101.28 156.04C101.931 156.04 102.502 155.859 102.992 155.496C103.494 155.133 103.883 154.605 104.16 153.912C104.438 153.219 104.576 152.381 104.576 151.4C104.576 150.419 104.438 149.581 104.16 148.888C103.883 148.195 103.494 147.667 102.992 147.304C102.502 146.941 101.931 146.76 101.28 146.76C100.63 146.76 100.054 146.941 99.5524 147.304C99.0617 147.667 98.6777 148.195 98.4004 148.888C98.123 149.581 97.9844 150.419 97.9844 151.4C97.9844 152.381 98.123 153.219 98.4004 153.912C98.6777 154.605 99.0617 155.133 99.5524 155.496C100.054 155.859 100.63 156.04 101.28 156.04ZM116.062 151.736L113.774 154.056V157H112.59V145.8H113.774V152.568L120.35 145.8H121.71L116.862 150.872L122.046 157H120.638L116.062 151.736ZM134.064 148.52C135.12 148.52 135.947 148.824 136.544 149.432C137.152 150.04 137.456 150.936 137.456 152.12V157H136.32V152.232C136.32 151.357 136.107 150.691 135.68 150.232C135.264 149.773 134.672 149.544 133.904 149.544C133.03 149.544 132.342 149.816 131.84 150.36C131.339 150.893 131.088 151.635 131.088 152.584V157H129.952V152.232C129.952 151.357 129.739 150.691 129.312 150.232C128.896 149.773 128.299 149.544 127.52 149.544C126.656 149.544 125.968 149.816 125.456 150.36C124.955 150.893 124.704 151.635 124.704 152.584V157H123.568V148.584H124.656V150.12C124.955 149.608 125.371 149.213 125.904 148.936C126.438 148.659 127.051 148.52 127.744 148.52C128.448 148.52 129.056 148.669 129.568 148.968C130.091 149.267 130.48 149.709 130.736 150.296C131.046 149.741 131.488 149.309 132.064 149C132.651 148.68 133.318 148.52 134.064 148.52ZM143.833 143.528H144.873L139.593 158.6H138.553L143.833 143.528ZM150.185 148.52C151.241 148.52 152.078 148.829 152.697 149.448C153.326 150.056 153.641 150.947 153.641 152.12V157H152.505V152.232C152.505 151.357 152.286 150.691 151.849 150.232C151.411 149.773 150.787 149.544 149.977 149.544C149.07 149.544 148.35 149.816 147.817 150.36C147.294 150.893 147.033 151.635 147.033 152.584V157H145.897V145.128H147.033V150.056C147.342 149.565 147.769 149.187 148.312 148.92C148.857 148.653 149.481 148.52 150.185 148.52Z" fill="#1D2527"/>
<path d="M38.4992 144.652C39.8691 143.461 41.5892 142.748 43.4 142.62V144.4C43.4 144.559 43.4632 144.712 43.5758 144.824C43.6883 144.937 43.8409 145 44 145C44.1592 145 44.3118 144.937 44.4243 144.824C44.5368 144.712 44.6 144.559 44.6 144.4V142.622C46.512 142.759 48.3197 143.545 49.7231 144.851C51.1266 146.157 52.0415 147.903 52.316 149.8H50C49.8409 149.8 49.6883 149.863 49.5758 149.976C49.4632 150.088 49.4 150.241 49.4 150.4C49.4 150.559 49.4632 150.712 49.5758 150.824C49.6883 150.937 49.8409 151 50 151H52.4C52.3986 152.16 52.1628 153.307 51.7069 154.373C51.2509 155.439 50.5842 156.402 49.7468 157.204C49.6365 157.314 49.5736 157.463 49.5714 157.62C49.5692 157.776 49.6278 157.926 49.7349 158.04C49.842 158.153 49.9892 158.221 50.1451 158.227C50.301 158.234 50.4534 158.18 50.57 158.076C51.5264 157.162 52.2879 156.064 52.8086 154.848C53.3293 153.632 53.5985 152.323 53.6 151C53.6 148.454 52.5886 146.012 50.7882 144.212C48.9879 142.411 46.5461 141.4 44 141.4C41.4539 141.4 39.0121 142.411 37.2118 144.212C35.4115 146.012 34.4 148.454 34.4 151C34.4 153.754 35.624 156.328 37.4756 158.076C37.533 158.13 37.6004 158.173 37.6741 158.201C37.7478 158.229 37.8263 158.242 37.905 158.24C37.9838 158.237 38.0614 158.219 38.1333 158.187C38.2052 158.155 38.27 158.109 38.324 158.051C38.3781 157.994 38.4203 157.926 38.4483 157.853C38.4763 157.779 38.4895 157.701 38.4871 157.622C38.4848 157.543 38.467 157.465 38.4346 157.394C38.4023 157.322 38.3562 157.257 38.2988 157.203C36.674 155.668 35.6 153.404 35.6 151H38C38.1592 151 38.3118 150.937 38.4243 150.824C38.5368 150.712 38.6 150.559 38.6 150.4C38.6 150.241 38.5368 150.088 38.4243 149.976C38.3118 149.863 38.1592 149.8 38 149.8H35.684C35.9129 148.207 36.5962 146.715 37.652 145.5L39.3752 147.225C39.4879 147.337 39.6407 147.401 39.8 147.401C39.9594 147.401 40.1122 147.337 40.2248 147.225C40.3375 147.112 40.4008 146.959 40.4008 146.8C40.4008 146.641 40.3375 146.488 40.2248 146.375L38.4992 144.652ZM48.1388 145.968C48.2479 145.882 48.3836 145.836 48.5229 145.838C48.6621 145.841 48.7961 145.892 48.902 145.982C49.0078 146.073 49.0788 146.197 49.1029 146.334C49.127 146.472 49.1027 146.613 49.034 146.734L48.902 146.969C48.4195 147.821 47.9338 148.672 47.4452 149.52C47.0546 150.2 46.6586 150.876 46.2572 151.548C46.1068 151.802 45.9532 152.053 45.7964 152.302C45.6764 152.49 45.5588 152.669 45.4724 152.77C45.1624 153.133 44.7209 153.358 44.2449 153.396C43.769 153.433 43.2976 153.28 42.9344 152.97C42.5713 152.66 42.3462 152.219 42.3086 151.743C42.271 151.267 42.424 150.796 42.734 150.432C42.8204 150.332 42.9776 150.186 43.1456 150.039C43.3256 149.879 43.5572 149.684 43.8176 149.464C44.3408 149.027 44.996 148.492 45.6344 147.976C46.3959 147.36 47.1599 146.747 47.9264 146.138L48.1388 145.97V145.968Z" fill="#1D2527"/>
<path d="M84.32 197.704C85.8027 197.704 86.9387 198.195 87.728 199.176C88.5173 200.147 88.912 201.523 88.912 203.304C88.912 204.552 88.6987 205.608 88.272 206.472C87.8453 207.336 87.248 207.992 86.48 208.44C85.712 208.877 84.816 209.096 83.792 209.096C82.6827 209.096 81.7973 208.893 81.136 208.488L81.6 207.56C82.1333 207.912 82.8587 208.088 83.776 208.088C85.0133 208.088 85.984 207.699 86.688 206.92C87.392 206.131 87.744 204.989 87.744 203.496C87.744 203.219 87.728 202.915 87.696 202.584C87.4187 203.192 86.976 203.667 86.368 204.008C85.76 204.339 85.0613 204.504 84.272 204.504C83.536 204.504 82.88 204.365 82.304 204.088C81.7387 203.811 81.296 203.421 80.976 202.92C80.656 202.408 80.496 201.816 80.496 201.144C80.496 200.461 80.6613 199.859 80.992 199.336C81.3227 198.813 81.776 198.413 82.352 198.136C82.9387 197.848 83.5947 197.704 84.32 197.704ZM84.448 203.528C85.0133 203.528 85.5093 203.421 85.936 203.208C86.3733 202.995 86.7147 202.701 86.96 202.328C87.2053 201.955 87.328 201.539 87.328 201.08C87.328 200.653 87.2107 200.259 86.976 199.896C86.752 199.533 86.416 199.24 85.968 199.016C85.52 198.792 84.9867 198.68 84.368 198.68C83.5573 198.68 82.896 198.904 82.384 199.352C81.8827 199.789 81.632 200.376 81.632 201.112C81.632 201.848 81.8827 202.435 82.384 202.872C82.896 203.309 83.584 203.528 84.448 203.528ZM94.3175 195.528H95.3575L90.0775 210.6H89.0375L94.3175 195.528ZM99.2173 197.8V209H98.0653V198.824H95.4253V197.8H99.2173ZM106.359 209.096C105.495 209.096 104.721 208.867 104.039 208.408C103.367 207.949 102.839 207.293 102.455 206.44C102.081 205.576 101.895 204.563 101.895 203.4C101.895 202.237 102.081 201.229 102.455 200.376C102.839 199.512 103.367 198.851 104.039 198.392C104.721 197.933 105.495 197.704 106.359 197.704C107.223 197.704 107.991 197.933 108.663 198.392C109.345 198.851 109.879 199.512 110.263 200.376C110.647 201.229 110.839 202.237 110.839 203.4C110.839 204.563 110.647 205.576 110.263 206.44C109.879 207.293 109.345 207.949 108.663 208.408C107.991 208.867 107.223 209.096 106.359 209.096ZM106.359 208.04C107.009 208.04 107.58 207.859 108.071 207.496C108.572 207.133 108.961 206.605 109.239 205.912C109.516 205.219 109.655 204.381 109.655 203.4C109.655 202.419 109.516 201.581 109.239 200.888C108.961 200.195 108.572 199.667 108.071 199.304C107.58 198.941 107.009 198.76 106.359 198.76C105.708 198.76 105.132 198.941 104.631 199.304C104.14 199.667 103.756 200.195 103.479 200.888C103.201 201.581 103.062 202.419 103.062 203.4C103.062 204.381 103.201 205.219 103.479 205.912C103.756 206.605 104.14 207.133 104.631 207.496C105.132 207.859 105.708 208.04 106.359 208.04Z" fill="#1D2527"/>
<path d="M45.9534 192.517H45.9575H45.9534ZM45.9534 192.517L44.261 201.409L50.3919 201.429L42.0467 213.483L43.739 203.701L37.6085 203.679L45.9534 192.517ZM45.9545 191.017C45.914 191.017 45.8736 191.018 45.8338 191.021C45.5691 191.043 45.3935 191.131 45.1854 191.271C45.0683 191.349 44.9626 191.443 44.8716 191.551C44.8442 191.583 44.8184 191.617 44.7943 191.651L36.3894 202.775C36.0575 203.23 36.0088 203.83 36.2638 204.332C36.5184 204.834 37.0333 205.152 37.5977 205.156L41.9274 205.187L40.5662 213.208C40.4368 213.897 40.8043 214.584 41.4512 214.861C41.6392 214.941 41.8417 214.983 42.0463 214.983C42.5176 214.983 42.905 214.762 43.1957 214.364L51.611 202.31C51.9429 201.855 51.9913 201.254 51.7367 200.753C51.482 200.251 50.9672 199.933 50.4028 199.929L46.073 199.922L47.4197 192.87C47.4482 192.754 47.4626 192.636 47.4624 192.517C47.4624 191.705 46.8163 191.044 46.0078 191.018C45.9898 191.017 45.9722 191.017 45.9546 191.017L45.9545 191.017Z" fill="#1D2527"/>
<path d="M87.248 253.128C87.952 253.363 88.4907 253.715 88.864 254.184C89.248 254.653 89.44 255.219 89.44 255.88C89.44 256.531 89.264 257.101 88.912 257.592C88.56 258.072 88.0533 258.445 87.392 258.712C86.7413 258.968 85.9733 259.096 85.088 259.096C83.744 259.096 82.688 258.808 81.92 258.232C81.152 257.656 80.768 256.872 80.768 255.88C80.768 255.208 80.9493 254.643 81.312 254.184C81.6853 253.715 82.224 253.363 82.928 253.128C82.352 252.904 81.9147 252.584 81.616 252.168C81.3173 251.741 81.168 251.24 81.168 250.664C81.168 249.757 81.52 249.037 82.224 248.504C82.9387 247.971 83.8933 247.704 85.088 247.704C85.8773 247.704 86.5653 247.827 87.152 248.072C87.7493 248.307 88.2133 248.648 88.544 249.096C88.8747 249.544 89.04 250.067 89.04 250.664C89.04 251.24 88.8853 251.741 88.576 252.168C88.2667 252.584 87.824 252.904 87.248 253.128ZM82.32 250.696C82.32 251.315 82.5653 251.805 83.056 252.168C83.5467 252.531 84.224 252.712 85.088 252.712C85.952 252.712 86.6293 252.531 87.12 252.168C87.6213 251.805 87.872 251.32 87.872 250.712C87.872 250.083 87.616 249.587 87.104 249.224C86.6027 248.861 85.9307 248.68 85.088 248.68C84.2347 248.68 83.5573 248.861 83.056 249.224C82.5653 249.587 82.32 250.077 82.32 250.696ZM85.088 258.12C86.08 258.12 86.8533 257.917 87.408 257.512C87.9733 257.107 88.256 256.557 88.256 255.864C88.256 255.171 87.9733 254.627 87.408 254.232C86.8533 253.827 86.08 253.624 85.088 253.624C84.1067 253.624 83.3333 253.827 82.768 254.232C82.2133 254.627 81.936 255.171 81.936 255.864C81.936 256.568 82.2133 257.123 82.768 257.528C83.3227 257.923 84.096 258.12 85.088 258.12ZM95.0831 245.528H96.1231L90.8431 260.6H89.8031L95.0831 245.528ZM99.9829 247.8V259H98.8309V248.824H96.1909V247.8H99.9829ZM107.124 259.096C106.26 259.096 105.487 258.867 104.804 258.408C104.132 257.949 103.604 257.293 103.22 256.44C102.847 255.576 102.66 254.563 102.66 253.4C102.66 252.237 102.847 251.229 103.22 250.376C103.604 249.512 104.132 248.851 104.804 248.392C105.487 247.933 106.26 247.704 107.124 247.704C107.988 247.704 108.756 247.933 109.428 248.392C110.111 248.851 110.644 249.512 111.028 250.376C111.412 251.229 111.604 252.237 111.604 253.4C111.604 254.563 111.412 255.576 111.028 256.44C110.644 257.293 110.111 257.949 109.428 258.408C108.756 258.867 107.988 259.096 107.124 259.096ZM107.124 258.04C107.775 258.04 108.345 257.859 108.836 257.496C109.337 257.133 109.727 256.605 110.004 255.912C110.281 255.219 110.42 254.381 110.42 253.4C110.42 252.419 110.281 251.581 110.004 250.888C109.727 250.195 109.337 249.667 108.836 249.304C108.345 248.941 107.775 248.76 107.124 248.76C106.473 248.76 105.897 248.941 105.396 249.304C104.905 249.667 104.521 250.195 104.244 250.888C103.967 251.581 103.828 252.419 103.828 253.4C103.828 254.381 103.967 255.219 104.244 255.912C104.521 256.605 104.905 257.133 105.396 257.496C105.897 257.859 106.473 258.04 107.124 258.04Z" fill="#1D2527"/>
<path d="M45.2 254C45.8365 254 46.447 254.253 46.8971 254.703C47.3472 255.153 47.6 255.764 47.6 256.4V258.2C47.6 260.665 45.0944 262.4 41 262.4C36.9056 262.4 34.4 260.665 34.4 258.2V256.4C34.4 255.764 34.6529 255.153 35.103 254.703C35.5531 254.253 36.1635 254 36.8 254H45.2ZM45.2 255.2H36.8C36.4818 255.2 36.1765 255.326 35.9515 255.551C35.7265 255.777 35.6 256.082 35.6 256.4V258.2C35.6 259.888 37.4948 261.2 41 261.2C44.5052 261.2 46.4 259.888 46.4 258.2V256.4C46.4 256.082 46.2736 255.777 46.0486 255.551C45.8235 255.326 45.5183 255.2 45.2 255.2ZM51.2 254C51.8365 254 52.447 254.253 52.8971 254.703C53.3472 255.153 53.6 255.764 53.6 256.4V257C53.6 259.507 51.7184 261.2 48.2 261.2C48.0308 261.2 47.864 261.196 47.7032 261.188C47.9497 260.903 48.1601 260.588 48.3296 260.251L48.446 259.995H48.4928C51.1712 259.917 52.4 258.752 52.4 257V256.4C52.4 256.082 52.2736 255.777 52.0486 255.551C51.8235 255.326 51.5183 255.2 51.2 255.2H48.5948C48.4378 254.757 48.1956 254.35 47.882 254H51.2ZM41 244.4C41.5516 244.4 42.0977 244.509 42.6073 244.72C43.1169 244.931 43.5799 245.24 43.9699 245.63C44.3599 246.02 44.6692 246.483 44.8803 246.993C45.0914 247.502 45.2 248.048 45.2 248.6C45.2 249.152 45.0914 249.698 44.8803 250.207C44.6692 250.717 44.3599 251.18 43.9699 251.57C43.5799 251.96 43.1169 252.269 42.6073 252.48C42.0977 252.691 41.5516 252.8 41 252.8C39.8861 252.8 38.8178 252.358 38.0302 251.57C37.2425 250.782 36.8 249.714 36.8 248.6C36.8 247.486 37.2425 246.418 38.0302 245.63C38.8178 244.843 39.8861 244.4 41 244.4ZM49.4 246.8C50.1957 246.8 50.9587 247.116 51.5213 247.679C52.084 248.241 52.4 249.004 52.4 249.8C52.4 250.596 52.084 251.359 51.5213 251.921C50.9587 252.484 50.1957 252.8 49.4 252.8C48.6044 252.8 47.8413 252.484 47.2787 251.921C46.7161 251.359 46.4 250.596 46.4 249.8C46.4 249.004 46.7161 248.241 47.2787 247.679C47.8413 247.116 48.6044 246.8 49.4 246.8ZM41 245.6C40.2044 245.6 39.4413 245.916 38.8787 246.479C38.3161 247.041 38 247.804 38 248.6C38 249.396 38.3161 250.159 38.8787 250.721C39.4413 251.284 40.2044 251.6 41 251.6C41.7957 251.6 42.5587 251.284 43.1213 250.721C43.684 250.159 44 249.396 44 248.6C44 247.804 43.684 247.041 43.1213 246.479C42.5587 245.916 41.7957 245.6 41 245.6ZM49.4 248C48.9226 248 48.4648 248.19 48.1272 248.527C47.7897 248.865 47.6 249.323 47.6 249.8C47.6 250.277 47.7897 250.735 48.1272 251.073C48.4648 251.41 48.9226 251.6 49.4 251.6C49.8774 251.6 50.3353 251.41 50.6728 251.073C51.0104 250.735 51.2 250.277 51.2 249.8C51.2 249.323 51.0104 248.865 50.6728 248.527C50.3353 248.19 49.8774 248 49.4 248Z" fill="#1D2527"/>
<path d="M107.776 40.2V57H106.072V43.56L99.4721 54.864H98.6321L92.0321 43.632V57H90.3281V40.2H91.7921L99.0881 52.656L106.312 40.2H107.776ZM124.266 44.376V57H122.634V54.696C122.186 55.464 121.57 56.064 120.786 56.496C120.002 56.912 119.106 57.12 118.098 57.12C116.45 57.12 115.146 56.664 114.186 55.752C113.242 54.824 112.77 53.472 112.77 51.696V44.376H114.474V51.528C114.474 52.856 114.802 53.864 115.458 54.552C116.114 55.24 117.05 55.584 118.266 55.584C119.594 55.584 120.642 55.184 121.41 54.384C122.178 53.568 122.562 52.44 122.562 51V44.376H124.266ZM132.422 57.12C131.398 57.12 130.414 56.976 129.47 56.688C128.542 56.384 127.814 56.008 127.286 55.56L128.054 54.216C128.582 54.632 129.246 54.976 130.046 55.248C130.846 55.504 131.678 55.632 132.542 55.632C133.694 55.632 134.542 55.456 135.086 55.104C135.646 54.736 135.926 54.224 135.926 53.568C135.926 53.104 135.774 52.744 135.47 52.488C135.166 52.216 134.782 52.016 134.318 51.888C133.854 51.744 133.238 51.608 132.47 51.48C131.446 51.288 130.622 51.096 129.998 50.904C129.374 50.696 128.838 50.352 128.39 49.872C127.958 49.392 127.742 48.728 127.742 47.88C127.742 46.824 128.182 45.96 129.062 45.288C129.942 44.616 131.166 44.28 132.734 44.28C133.55 44.28 134.366 44.392 135.182 44.616C135.998 44.824 136.67 45.104 137.198 45.456L136.454 46.824C135.414 46.104 134.174 45.744 132.734 45.744C131.646 45.744 130.822 45.936 130.262 46.32C129.718 46.704 129.446 47.208 129.446 47.832C129.446 48.312 129.598 48.696 129.902 48.984C130.222 49.272 130.614 49.488 131.078 49.632C131.542 49.76 132.182 49.896 132.998 50.04C134.006 50.232 134.814 50.424 135.422 50.616C136.03 50.808 136.55 51.136 136.982 51.6C137.414 52.064 137.63 52.704 137.63 53.52C137.63 54.624 137.166 55.504 136.238 56.16C135.326 56.8 134.054 57.12 132.422 57.12ZM147.429 56.232C147.109 56.52 146.709 56.744 146.229 56.904C145.765 57.048 145.277 57.12 144.765 57.12C143.581 57.12 142.669 56.8 142.029 56.16C141.389 55.52 141.069 54.616 141.069 53.448V45.816H138.813V44.376H141.069V41.616H142.773V44.376H146.613V45.816H142.773V53.352C142.773 54.104 142.957 54.68 143.325 55.08C143.709 55.464 144.253 55.656 144.957 55.656C145.309 55.656 145.645 55.6 145.965 55.488C146.301 55.376 146.589 55.216 146.829 55.008L147.429 56.232ZM154.947 44.28C156.595 44.28 157.859 44.696 158.739 45.528C159.619 46.344 160.059 47.56 160.059 49.176V57H158.427V55.032C158.043 55.688 157.475 56.2 156.723 56.568C155.987 56.936 155.107 57.12 154.083 57.12C152.675 57.12 151.555 56.784 150.723 56.112C149.891 55.44 149.475 54.552 149.475 53.448C149.475 52.376 149.859 51.512 150.627 50.856C151.411 50.2 152.651 49.872 154.347 49.872H158.355V49.104C158.355 48.016 158.051 47.192 157.443 46.632C156.835 46.056 155.947 45.768 154.779 45.768C153.979 45.768 153.211 45.904 152.475 46.176C151.739 46.432 151.107 46.792 150.579 47.256L149.811 45.984C150.451 45.44 151.219 45.024 152.115 44.736C153.011 44.432 153.955 44.28 154.947 44.28ZM154.347 55.776C155.307 55.776 156.131 55.56 156.819 55.128C157.507 54.68 158.019 54.04 158.355 53.208V51.144H154.395C152.235 51.144 151.155 51.896 151.155 53.4C151.155 54.136 151.435 54.72 151.995 55.152C152.555 55.568 153.339 55.776 154.347 55.776ZM171.119 44.28C172.703 44.28 173.959 44.744 174.887 45.672C175.831 46.584 176.303 47.92 176.303 49.68V57H174.599V49.848C174.599 48.536 174.271 47.536 173.615 46.848C172.959 46.16 172.023 45.816 170.807 45.816C169.447 45.816 168.367 46.224 167.567 47.04C166.783 47.84 166.391 48.952 166.391 50.376V57H164.687V44.376H166.319V46.704C166.783 45.936 167.423 45.344 168.239 44.928C169.071 44.496 170.031 44.28 171.119 44.28ZM192.664 44.376V55.464C192.664 57.608 192.136 59.192 191.08 60.216C190.04 61.256 188.464 61.776 186.352 61.776C185.184 61.776 184.072 61.6 183.016 61.248C181.976 60.912 181.128 60.44 180.472 59.832L181.336 58.536C181.944 59.08 182.68 59.504 183.544 59.808C184.424 60.112 185.344 60.264 186.304 60.264C187.904 60.264 189.08 59.888 189.832 59.136C190.584 58.4 190.96 57.248 190.96 55.68V54.072C190.432 54.872 189.736 55.48 188.872 55.896C188.024 56.312 187.08 56.52 186.04 56.52C184.856 56.52 183.776 56.264 182.8 55.752C181.84 55.224 181.08 54.496 180.52 53.568C179.976 52.624 179.704 51.56 179.704 50.376C179.704 49.192 179.976 48.136 180.52 47.208C181.08 46.28 181.84 45.56 182.8 45.048C183.76 44.536 184.84 44.28 186.04 44.28C187.112 44.28 188.08 44.496 188.944 44.928C189.808 45.36 190.504 45.984 191.032 46.8V44.376H192.664ZM186.208 55.008C187.12 55.008 187.944 54.816 188.68 54.432C189.416 54.032 189.984 53.48 190.384 52.776C190.8 52.072 191.008 51.272 191.008 50.376C191.008 49.48 190.8 48.688 190.384 48C189.984 47.296 189.416 46.752 188.68 46.368C187.96 45.968 187.136 45.768 186.208 45.768C185.296 45.768 184.472 45.96 183.736 46.344C183.016 46.728 182.448 47.272 182.032 47.976C181.632 48.68 181.432 49.48 181.432 50.376C181.432 51.272 181.632 52.072 182.032 52.776C182.448 53.48 183.016 54.032 183.736 54.432C184.472 54.816 185.296 55.008 186.208 55.008Z" fill="#1D2527"/>
<path d="M115.478 308.8L110.566 320H108.982L104.054 308.8H105.782L109.814 318L113.878 308.8H115.478ZM123.706 315.808C123.706 315.925 123.695 316.08 123.674 316.272H116.794C116.89 317.019 117.215 317.621 117.77 318.08C118.335 318.528 119.034 318.752 119.866 318.752C120.879 318.752 121.695 318.411 122.314 317.728L123.162 318.72C122.778 319.168 122.298 319.509 121.722 319.744C121.157 319.979 120.522 320.096 119.818 320.096C118.922 320.096 118.127 319.915 117.434 319.552C116.741 319.179 116.202 318.661 115.818 318C115.445 317.339 115.258 316.592 115.258 315.76C115.258 314.939 115.439 314.197 115.802 313.536C116.175 312.875 116.682 312.363 117.322 312C117.973 311.627 118.703 311.44 119.514 311.44C120.325 311.44 121.045 311.627 121.674 312C122.314 312.363 122.81 312.875 123.162 313.536C123.525 314.197 123.706 314.955 123.706 315.808ZM119.514 312.736C118.778 312.736 118.159 312.96 117.658 313.408C117.167 313.856 116.879 314.443 116.794 315.168H122.234C122.149 314.453 121.855 313.872 121.354 313.424C120.863 312.965 120.25 312.736 119.514 312.736ZM127.311 312.944C127.577 312.453 127.972 312.08 128.495 311.824C129.017 311.568 129.652 311.44 130.399 311.44V312.928C130.313 312.917 130.196 312.912 130.047 312.912C129.215 312.912 128.559 313.163 128.079 313.664C127.609 314.155 127.375 314.859 127.375 315.776V320H125.839V311.52H127.311V312.944ZM140.394 320.096C139.53 320.096 138.757 319.909 138.074 319.536C137.402 319.163 136.874 318.651 136.49 318C136.106 317.339 135.914 316.592 135.914 315.76C135.914 314.928 136.106 314.187 136.49 313.536C136.874 312.875 137.402 312.363 138.074 312C138.757 311.627 139.53 311.44 140.394 311.44C141.162 311.44 141.845 311.595 142.442 311.904C143.05 312.213 143.52 312.661 143.85 313.248L142.682 314C142.416 313.595 142.085 313.291 141.69 313.088C141.296 312.885 140.858 312.784 140.378 312.784C139.824 312.784 139.322 312.907 138.874 313.152C138.437 313.397 138.09 313.749 137.834 314.208C137.589 314.656 137.466 315.173 137.466 315.76C137.466 316.357 137.589 316.885 137.834 317.344C138.09 317.792 138.437 318.139 138.874 318.384C139.322 318.629 139.824 318.752 140.378 318.752C140.858 318.752 141.296 318.651 141.69 318.448C142.085 318.245 142.416 317.941 142.682 317.536L143.85 318.272C143.52 318.859 143.05 319.312 142.442 319.632C141.845 319.941 141.162 320.096 140.394 320.096ZM148.927 311.44C150.1 311.44 150.996 311.728 151.615 312.304C152.244 312.88 152.559 313.739 152.559 314.88V320H151.103V318.88C150.847 319.275 150.479 319.579 149.999 319.792C149.529 319.995 148.969 320.096 148.319 320.096C147.369 320.096 146.607 319.867 146.031 319.408C145.465 318.949 145.183 318.347 145.183 317.6C145.183 316.853 145.455 316.256 145.999 315.808C146.543 315.349 147.407 315.12 148.591 315.12H151.023V314.816C151.023 314.155 150.831 313.648 150.447 313.296C150.063 312.944 149.497 312.768 148.751 312.768C148.249 312.768 147.759 312.853 147.279 313.024C146.799 313.184 146.393 313.403 146.063 313.68L145.423 312.528C145.86 312.176 146.383 311.909 146.991 311.728C147.599 311.536 148.244 311.44 148.927 311.44ZM148.575 318.912C149.161 318.912 149.668 318.784 150.095 318.528C150.521 318.261 150.831 317.888 151.023 317.408V316.224H148.655C147.353 316.224 146.703 316.661 146.703 317.536C146.703 317.963 146.868 318.299 147.199 318.544C147.529 318.789 147.988 318.912 148.575 318.912ZM156.873 312.944C157.14 312.453 157.535 312.08 158.057 311.824C158.58 311.568 159.215 311.44 159.961 311.44V312.928C159.876 312.917 159.759 312.912 159.609 312.912C158.777 312.912 158.121 313.163 157.641 313.664C157.172 314.155 156.937 314.859 156.937 315.776V320H155.401V311.52H156.873V312.944ZM163.326 312.944C163.593 312.453 163.988 312.08 164.51 311.824C165.033 311.568 165.668 311.44 166.414 311.44V312.928C166.329 312.917 166.212 312.912 166.062 312.912C165.23 312.912 164.574 313.163 164.094 313.664C163.625 314.155 163.39 314.859 163.39 315.776V320H161.854V311.52H163.326V312.944ZM171.861 320.096C171.019 320.096 170.261 319.909 169.589 319.536C168.917 319.163 168.389 318.651 168.005 318C167.632 317.339 167.445 316.592 167.445 315.76C167.445 314.928 167.632 314.187 168.005 313.536C168.389 312.875 168.917 312.363 169.589 312C170.261 311.627 171.019 311.44 171.861 311.44C172.704 311.44 173.456 311.627 174.117 312C174.789 312.363 175.312 312.875 175.685 313.536C176.069 314.187 176.261 314.928 176.261 315.76C176.261 316.592 176.069 317.339 175.685 318C175.312 318.651 174.789 319.163 174.117 319.536C173.456 319.909 172.704 320.096 171.861 320.096ZM171.861 318.752C172.405 318.752 172.891 318.629 173.317 318.384C173.755 318.128 174.096 317.776 174.341 317.328C174.587 316.869 174.709 316.347 174.709 315.76C174.709 315.173 174.587 314.656 174.341 314.208C174.096 313.749 173.755 313.397 173.317 313.152C172.891 312.907 172.405 312.784 171.861 312.784C171.317 312.784 170.827 312.907 170.389 313.152C169.963 313.397 169.621 313.749 169.365 314.208C169.12 314.656 168.997 315.173 168.997 315.76C168.997 316.347 169.12 316.869 169.365 317.328C169.621 317.776 169.963 318.128 170.389 318.384C170.827 318.629 171.317 318.752 171.861 318.752Z" fill="#1D2527"/>
<rect x="32.5" y="290.5" width="216" height="47" rx="20.5" stroke="#1D2527"/>
<rect x="0.5" y="0.5" width="280" height="361" rx="23.5" stroke="#1D2527"/>
<defs>
<clipPath id="clip0_53_255">
<rect width="24" height="24" fill="white" transform="translate(32 89)"/>
</clipPath>
</defs>
</svg>
